#!OML:ASF X:\für Bonn\!DataBase\2005_08_12_Daniel\c3d\Daniel.ASF
:FULLY-SPECIFIED
:DEGREES
225
root 9.60159 16.6871 -1.85089 -184.46 -35.1035 177.857
lowerback 9.68204 -2.84682 -6.32109
upperback 3.15491 -4.6923 -2.22116
thorax -1.81871 -2.45345 1.74351
lowerneck 3.28212 -4.68563 -12.7095
upperneck 24.2554 -10.262 7.73296
head 7.96015 -6.29421 3.97365
rclavicle 3.03147e-014 2.70347e-014
rhumerus -39.1276 -16.238 -78.2825
rradius 21.4076
rwrist 20.5202
rhand -14.283 16.1178
rfingers 7.12502
rthumb 11.8562 -13.5266
lclavicle 3.03147e-014 2.70347e-014
lhumerus -47.7676 26.3216 48.5227
lradius 26.9437
lwrist -17.495
lhand -5.92666 -6.39363
lfingers 7.12502
lthumb 19.9029 22.6072
rfemur -5.58964 -17.8657 16.5349
rtibia 49.8575
rfoot -28.217 9.47882
rtoes -4.38856
lfemur -6.72479 -3.87169 1.20903
ltibia 31.4538
lfoot -19.1564 24.1306
ltoes -1.24086
226
root 9.71464 16.6978 -1.91781 -184.351 -33.869 177.52
lowerback 9.8327 -2.71641 -6.46577
upperback 3.15027 -4.56508 -2.3753
thorax -1.91788 -2.39267 1.66221
lowerneck 3.35796 -4.54656 -12.6165
upperneck 24.1996 -10.0808 7.67236
head 7.89791 -6.21464 3.95535
rclavicle -7.37988e-014 -5.56597e-015
rhumerus -38.8854 -15.5644 -78.9842
rradius 21.6744
rwrist 19.8958
rhand -14.4012 16.2597
rfingers 7.12502
rthumb 11.7422 -13.3912
lclavicle -7.37988e-014 -5.56597e-015
lhumerus -48.5636 26.6717 48.4322
lradius 27.2793
lwrist -16.6957
lhand -6.5849 -6.61122
lfingers 7.12502
lthumb 19.27 22.4541
rfemur -5.54953 -17.1641 16.8042
rtibia 49.5588
rfoot -28.0872 9.91539
rtoes -3.22363
lfemur -6.99315 -3.80034 0.865721
ltibia 32.5205
lfoot -18.9345 21.8841
ltoes -2.31675
227
root 9.82504 16.7134 -1.98415 -184.212 -32.6029 177.139
lowerback 9.93558 -2.55632 -6.69184
upperback 3.1813 -4.40407 -2.52031
thorax -1.94901 -2.31951 1.62651
lowerneck 3.35984 -4.44732 -12.4315
upperneck 24.0638 -9.9111 7.57616
head 7.81715 -6.12397 3.90649
rclavicle 4.7758e-014 -3.73715e-014
rhumerus -38.6336 -15.0629 -79.5796
rradius 21.9204
rwrist 19.5717
rhand -14.4529 16.3322
rfingers 7.12502
rthumb 11.6923 -13.3215
lclavicle 4.7758e-014 -3.73715e-014
lhumerus -49.2488 27.1197 48.4434
lradius 27.5717
lwrist -15.9261
lhand -7.30453 -6.69976
lfingers 7.12502
lthumb 18.5779 22.4331
rfemur -5.49806 -16.3743 17.0592
rtibia 49.2158
rfoot -27.9441 10.144
rtoes -2.30256
lfemur -7.29446 -3.8126 0.352055
ltibia 33.6275
lfoot -18.9228 19.8018
ltoes -4.15151
228
root 9.93346 16.7336 -2.04963 -184.056 -31.2844 176.765
lowerback 10.0534 -2.38961 -6.91018
upperback 3.17549 -4.23647 -2.66421
thorax -2.02816 -2.24023 1.58875
lowerneck 3.26368 -4.33087 -12.2781
upperneck 24.0766 -9.72535 7.4476
head 7.80284 -6.03517 3.84853
rclavicle -3.20043e-014 -3.02153e-014
rhumerus -38.3844 -14.6807 -80.0396
rradius 22.0503
rwrist 19.5084
rhand -14.4154 16.4788
rfingers 7.12502
rthumb 11.7286 -13.1729
lclavicle -3.20043e-014 -3.02153e-014
lhumerus -49.9378 27.4956 48.461
lradius 27.7761
lwrist -15.0986
lhand -7.83845 -6.7857
lfingers 7.12502
lthumb 18.0643 22.3954
rfemur -5.45609 -15.4443 17.3366
rtibia 48.832
rfoot -27.6919 10.3599
rtoes -1.09082
lfemur -7.66035 -3.72546 -0.227461
ltibia 34.7883
lfoot -19.0411 17.6099
ltoes -4.79694
229
root 10.0388 16.7618 -2.11311 -183.907 -29.9532 176.345
lowerback 10.2129 -2.19666 -7.14277
upperback 3.17484 -4.04498 -2.83489
thorax -2.12834 -2.15002 1.53005
lowerneck 3.26966 -4.23342 -12.0643
upperneck 23.9665 -9.56127 7.3261
head 7.72949 -5.94838 3.78559
rclavicle -5.26779e-015 -3.18055e-015
rhumerus -38.2126 -14.1799 -80.5533
rradius 22.2878
rwrist 19.1329
rhand -14.2849 16.4995
rfingers 7.12502
rthumb 11.8544 -13.145
lclavicle -5.26779e-015 -3.18055e-015
lhumerus -50.5821 27.9637 48.4914
lradius 27.9068
lwrist -14.4162
lhand -8.38593 -6.99574
lfingers 7.12502
lthumb 17.5375 22.2332
rfemur -5.36824 -14.5219 17.5343
rtibia 48.4254
rfoot -27.3838 10.5313
rtoes -0.302221
lfemur -8.03038 -3.55622 -0.964379
ltibia 35.9852
lfoot -19.2944 15.6039
ltoes -5.4637
230
root 10.1431 16.7931 -2.17708 -183.773 -28.566 175.956
lowerback 10.366 -1.97049 -7.34403
upperback 3.16052 -3.80912 -3.01741
thorax -2.246 -2.03719 1.43592
lowerneck 3.23885 -4.14944 -11.8717
upperneck 23.9272 -9.42966 7.22552
head 7.69254 -5.87963 3.72883
rclavicle -6.34123e-014 3.02153e-014
rhumerus -38.0325 -13.6605 -81.0773
rradius 22.415
rwrist 18.7282
rhand -14.1857 16.6465
rfingers 7.12502
rthumb 11.95 -12.9924
lclavicle -6.34123e-014 3.02153e-014
lhumerus -51.0417 28.153 48.7189
lradius 27.9311
lwrist -13.5365
lhand -8.8027 -7.1685
lfingers 7.12502
lthumb 17.1364 22.0958
rfemur -5.29615 -13.5348 17.7669
rtibia 48.0329
rfoot -27.0856 10.5558
rtoes 0.0157662
lfemur -8.40501 -3.17213 -1.74996
ltibia 37.1949
lfoot -19.5551 13.657
ltoes -5.79795
